<svg id="Capa_1" enable-background="new 0 0 512.002 512.002" height="512" viewBox="0 0 512.002 512.002" width="512" xmlns="http://www.w3.org/2000/svg"><g><g clip-rule="evenodd" fill-rule="evenodd"><path d="m319.64 110.419c-35.147-35.147-92.132-35.147-127.279 0-7.126 7.126-12.807 15.149-17.043 23.706-11.5 23.229-12.355 50.39-2.563 74.202 4.393 10.683 10.928 20.693 19.606 29.371 12.175 12.174 26.97 20.13 42.57 23.869 5 8.668 10 17.335 15.007 26.008 2.744 4.737 9.554 4.581 12.165-.082 4.989-8.64 9.974-17.282 14.959-25.924 15.603-3.74 30.4-11.694 42.577-23.87 8.678-8.678 15.214-18.687 19.606-29.371 9.791-23.813 8.937-50.974-2.563-74.202-4.235-8.558-9.916-16.581-17.042-23.707z" fill="#fff"/><g fill="#e0ef9b"><path d="m172.755 208.327c-9.792-23.813-8.937-50.974 2.564-74.203l-124.914 69.513 43.866 48.365z"/><path d="m417.731 252.003-161.73 90 58.269 15.365 103.461-57.574 58.27-32.426z"/><path d="m256.001 342.003-161.73-90-58.27 15.365 58.27 32.426 103.46 57.574z"/><path d="m256.001 342.003-58.27 15.365-103.46-57.574v112.208l161.73 90z"/><path d="m256.001 342.003v159.999l161.73-90v-112.208l-103.461 57.574z"/><path d="m339.247 208.327c9.791-23.813 8.937-50.974-2.564-74.203l124.915 69.513-43.866 48.365z"/></g><path d="m234.932 261.567c-15.6-3.739-30.396-11.694-42.57-23.869-8.678-8.678-15.214-18.687-19.606-29.371l-78.485 43.675 161.73 90 161.73-90-78.485-43.675c-4.393 10.683-10.928 20.693-19.606 29.371-12.177 12.176-26.974 20.13-42.577 23.87-4.986 8.642-9.971 17.284-14.959 25.924-2.611 4.663-9.421 4.819-12.165.082-5.007-8.673-10.007-17.34-15.007-26.007z" fill="#cbe558"/></g><g><path d="m485.923 266.121c-.508-4.049-3.426-7.382-7.372-8.423l-42.355-11.169 32.809-36.174c2.05-2.26 2.956-5.332 2.46-8.343-.496-3.01-2.338-5.63-5.004-7.114l-122.236-68.022c-4.587-8.55-10.458-16.474-17.513-23.528-18.888-18.887-44-29.289-70.711-29.289-26.71 0-51.823 10.402-70.71 29.289-7.116 7.116-12.933 15.047-17.452 23.496l-122.297 68.055c-2.666 1.484-4.509 4.104-5.004 7.114-.496 3.011.41 6.083 2.46 8.343l32.809 36.174-42.355 11.169c-3.946 1.041-6.864 4.374-7.372 8.423-.509 4.049 1.494 8 5.059 9.985l53.133 29.567v106.329c0 3.629 1.966 6.974 5.137 8.738l161.73 90c1.512.841 3.188 1.262 4.863 1.262s3.351-.42 4.863-1.262l161.73-90c3.171-1.765 5.137-5.109 5.137-8.738v-106.33l53.132-29.567c3.565-1.984 5.568-5.936 5.059-9.985zm-40.196-59.871-30.07 33.154-64.109-35.675c2.932-9.484 4.452-19.461 4.452-29.67 0-6.346-.588-12.602-1.736-18.706zm-246.294-88.759c15.11-15.11 35.199-23.432 56.568-23.432s41.458 8.322 56.568 23.432 23.431 35.199 23.431 56.568-8.321 41.458-23.431 56.568c-10.453 10.453-23.537 17.79-37.836 21.217-2.669.64-4.959 2.349-6.331 4.727l-12.405 21.496c-4.137-7.167-8.271-14.332-12.404-21.497-1.372-2.378-3.661-4.087-6.331-4.728-14.296-3.427-27.377-10.763-37.83-21.215-31.191-31.192-31.191-81.945.001-113.136zm-133.158 88.759 91.531-50.935c-3.038 16.046-2.138 32.697 2.703 48.383l-64.164 35.706zm26.652 56.449 38.018 21.156c1.54.857 3.208 1.264 4.854 1.264 3.512 0 6.919-1.853 8.748-5.139 2.686-4.826.95-10.915-3.875-13.601l-25.833-14.376 53.516-29.78c4.443 8.094 10.089 15.698 16.939 22.547 12.022 12.022 26.834 20.747 43.061 25.404 4.307 7.465 8.616 14.933 12.935 22.413 3.077 5.312 8.561 8.473 14.69 8.473h.131c6.08-.045 11.698-3.341 14.681-8.609l12.854-22.275c16.229-4.657 31.045-13.383 43.068-25.405 6.779-6.779 12.465-14.361 16.97-22.53l53.485 29.763-141.165 78.556-36.679-20.411c-4.827-2.687-10.917-.951-13.601 3.875-2.686 4.826-.95 10.916 3.875 13.601l19.842 11.042-30.363 8.006-136.514-75.968zm11.344 54.104 88.598 49.303c2.258 1.257 4.914 1.59 7.413.931l45.72-12.056v130.012l-141.73-78.87v-89.32zm303.46 89.32-141.73 78.87v-130.012l45.72 12.056c.839.221 1.696.331 2.549.331 1.688 0 3.364-.427 4.863-1.262l88.598-49.303zm-94.804-59.452-30.363-8.006 136.512-75.966 30.362 8.006z"/><path d="m206.005 185.559c5.523 0 10-4.477 10-10s-4.477-10-10-10h-.007c-5.523 0-9.997 4.477-9.997 10s4.481 10 10.004 10z"/><path d="m256.005 185.559c5.523 0 10-4.477 10-10s-4.477-10-10-10h-.008c-5.523 0-9.996 4.477-9.996 10s4.481 10 10.004 10z"/><path d="m306.004 185.559c5.523 0 10-4.477 10-10s-4.477-10-10-10h-.007c-5.523 0-9.997 4.477-9.997 10s4.481 10 10.004 10z"/><path d="m256.001 43c5.523 0 10-4.477 10-10v-23c0-5.523-4.477-10-10-10s-10 4.477-10 10v23c0 5.523 4.477 10 10 10z"/><path d="m194.958 52.036c1.852 3.208 5.213 5.002 8.669 5.002 1.696 0 3.416-.433 4.991-1.342 4.783-2.761 6.422-8.877 3.66-13.66l-11.5-19.918c-2.761-4.783-8.877-6.422-13.66-3.66-4.783 2.761-6.422 8.877-3.66 13.66z"/><path d="m303.383 55.696c1.575.91 3.294 1.342 4.991 1.342 3.456 0 6.817-1.794 8.669-5.002l11.5-19.918c2.762-4.783 1.123-10.899-3.66-13.66-4.781-2.762-10.898-1.123-13.66 3.66l-11.5 19.918c-2.762 4.782-1.123 10.899 3.66 13.66z"/><path d="m175.136 287.002h-.007c-5.523 0-9.996 4.477-9.996 10s4.48 10 10.003 10 10-4.477 10-10-4.477-10-10-10z"/></g></g></svg>