<?xml version="1.0" encoding="UTF-8"?>
<svg id="_레이어_2" data-name="레이어 2" xmlns="http://www.w3.org/2000/svg" viewBox="0 0 30 30">
  <defs>
    <style>
      .cls-1 {
        fill: #e60212;
      }

      .cls-2 {
        fill: #fff;
      }

      .cls-3 {
        fill: #dcdddd;
      }

      .cls-4 {
        fill: #604c3f;
      }

      .cls-5 {
        fill: #7a6a56;
      }
    </style>
  </defs>
  <g id="Layer_1" data-name="Layer 1">
    <g>
      <g>
        <path class="cls-5" d="M13.09,20.19v1.48h.65v-1.48h-.65Zm.36,.88c-.13,.02-.25-.07-.22-.17,.01-.06,.07-.1,.15-.12,.13-.02,.25,.07,.22,.17-.01,.06-.07,.1-.15,.12Z"/>
        <path class="cls-1" d="M15,14.88c.48,0,.86-.39,.86-.86v-1.81h-1.73v1.81c0,.48,.39,.86,.86,.86Z"/>
        <path class="cls-1" d="M24.33,10.3c-.32-.93-1.19-1.55-2.17-1.55H7.83c-.98,0-1.85,.62-2.17,1.55l-.57,1.67H24.91l-.57-1.67Z"/>
        <path class="cls-1" d="M19.19,14.88c.48,0,.86-.39,.86-.86v-1.81h-1.73v1.81c0,.48,.39,.86,.86,.86Z"/>
        <path class="cls-1" d="M22.52,14.02c0,.48,.39,.86,.86,.86s.86-.39,.86-.86v-1.81h-1.73v1.81Z"/>
        <g>
          <path class="cls-3" d="M16.23,14.02c0,.48,.39,.86,.86,.86s.86-.39,.86-.86v-1.81h-1.73v1.81Z"/>
          <path class="cls-3" d="M12.04,14.02c0,.48,.39,.86,.86,.86s.86-.39,.86-.86v-1.81h-1.73v1.81Z"/>
          <path class="cls-3" d="M20.42,12.21v1.81c0,.48,.39,.86,.86,.86s.86-.39,.86-.86v-1.81h-1.73Z"/>
          <path class="cls-3" d="M7.85,14.02c0,.48,.39,.86,.86,.86s.86-.39,.86-.86v-1.81h-1.73v1.81Z"/>
        </g>
        <path class="cls-1" d="M7.48,14.02v-1.81h-1.73v1.81c0,.48,.39,.86,.86,.86s.86-.39,.86-.86Z"/>
        <path class="cls-1" d="M10.81,14.88c.48,0,.86-.39,.86-.86v-1.81h-1.73v1.81c0,.48,.39,.86,.86,.86Z"/>
        <path class="cls-5" d="M22.33,14.71c-.23,.34-.61,.56-1.05,.56s-.82-.22-1.05-.56c-.23,.34-.61,.56-1.05,.56s-.82-.22-1.05-.56c-.23,.34-.61,.56-1.05,.56s-.82-.22-1.05-.56c-.23,.34-.61,.56-1.05,.56s-.82-.22-1.05-.56c-.23,.34-.61,.56-1.05,.56s-.82-.22-1.05-.56c-.23,.34-.61,.56-1.05,.56s-.82-.22-1.05-.56c-.23,.34-.61,.56-1.05,.56s-.82-.22-1.05-.56c-.23,.34-.61,.56-1.05,.56v8.97h6.09v-7.05h4.59v7.05h6.09V15.27c-.44,0-.82-.22-1.05-.56Zm-10.43,8.11H7.71v-4.96h4.19v4.96Z"/>
        <path class="cls-5" d="M10.81,21.81s-.07-.01-.1-.04l-2.1-2.05c-.06-.05-.06-.14,0-.2,.05-.06,.14-.06,.2,0l2.1,2.05c.06,.05,.06,.14,0,.2-.03,.03-.06,.04-.1,.04Z"/>
        <path class="cls-5" d="M10.99,20.78s-.07-.01-.1-.04l-2.1-2.05c-.06-.05-.06-.14,0-.2,.05-.06,.14-.06,.2,0l2.1,2.05c.06,.05,.06,.14,0,.2-.03,.03-.06,.04-.1,.04Z"/>
        <rect class="cls-1" x="7.48" y="5.24" width="15.03" height="3.16"/>
        <g>
          <path class="cls-2" d="M10.48,7.13l.54-.03c.01,.09,.04,.16,.07,.2,.06,.07,.14,.11,.25,.11,.08,0,.14-.02,.19-.06,.04-.04,.07-.08,.07-.13s-.02-.09-.06-.13c-.04-.04-.14-.07-.29-.11-.25-.06-.43-.13-.54-.22-.11-.09-.16-.21-.16-.36,0-.1,.03-.18,.08-.27,.06-.08,.14-.15,.25-.2,.11-.05,.26-.07,.46-.07,.24,0,.42,.04,.54,.13s.2,.23,.22,.42l-.54,.03c-.01-.08-.04-.14-.09-.18-.05-.04-.11-.06-.19-.06-.07,0-.12,.01-.15,.04-.03,.03-.05,.06-.05,.1,0,.03,.01,.06,.04,.08,.03,.02,.09,.05,.19,.07,.25,.05,.43,.11,.54,.16,.11,.06,.19,.12,.24,.21,.05,.08,.07,.17,.07,.27,0,.12-.03,.23-.1,.33-.07,.1-.16,.18-.28,.23-.12,.05-.27,.08-.45,.08-.31,0-.53-.06-.65-.18-.12-.12-.19-.28-.21-.46Z"/>
          <path class="cls-2" d="M12.32,5.9h1.74v.46h-.58v1.39h-.57v-1.39h-.58v-.46Z"/>
          <path class="cls-2" d="M14.16,6.82c0-.3,.08-.54,.25-.71,.17-.17,.4-.25,.7-.25s.55,.08,.71,.25c.17,.17,.25,.4,.25,.7,0,.22-.04,.39-.11,.53-.07,.14-.18,.25-.32,.32-.14,.08-.31,.12-.51,.12s-.38-.03-.52-.1c-.14-.07-.25-.17-.33-.32s-.13-.32-.13-.54Zm.57,0c0,.19,.03,.32,.1,.4,.07,.08,.16,.12,.28,.12s.22-.04,.29-.12c.07-.08,.1-.22,.1-.43,0-.17-.04-.3-.11-.38-.07-.08-.17-.12-.29-.12s-.21,.04-.28,.12c-.07,.08-.1,.22-.1,.41Z"/>
          <path class="cls-2" d="M16.39,7.75v-1.85h.95c.18,0,.31,.02,.41,.05,.09,.03,.17,.09,.23,.17,.06,.08,.09,.18,.09,.3,0,.1-.02,.19-.07,.27-.04,.07-.1,.13-.18,.18-.05,.03-.12,.05-.2,.07,.07,.02,.12,.05,.15,.07,.02,.02,.05,.05,.09,.1,.04,.05,.07,.09,.08,.12l.28,.54h-.65l-.31-.57c-.04-.07-.07-.12-.1-.14-.04-.03-.09-.04-.14-.04h-.05v.75h-.57Zm.57-1.1h.24s.08,0,.15-.03c.04,0,.07-.03,.09-.06,.02-.03,.04-.07,.04-.11,0-.06-.02-.11-.06-.14-.04-.03-.11-.05-.21-.05h-.25v.38Z"/>
          <path class="cls-2" d="M18.39,5.9h1.53v.4h-.96v.29h.89v.38h-.89v.36h.99v.42h-1.56v-1.85Z"/>
        </g>
      </g>
      <g>
        <path class="cls-1" d="M29.14,14.14C29.14,6.34,22.79,0,15,0S.86,6.34,.86,14.14c0,3.34,1.16,6.41,3.1,8.83-1.64-2.25-2.61-5.03-2.61-8.03C1.36,7.4,7.46,1.29,15,1.29s13.64,6.11,13.64,13.64c0,3-.97,5.77-2.61,8.03,1.94-2.42,3.1-5.49,3.1-8.83Z"/>
        <path class="cls-4" d="M28.63,8.67c.7,1.74,1.05,3.58,1.05,5.47s-.39,3.91-1.15,5.72c-.74,1.75-1.8,3.32-3.15,4.67-1.35,1.35-2.92,2.41-4.67,3.15-1.81,.77-3.73,1.15-5.72,1.15s-3.91-.39-5.72-1.15c-1.75-.74-3.32-1.8-4.67-3.15-1.35-1.35-2.41-2.92-3.15-4.67-.77-1.81-1.15-3.73-1.15-5.72s.35-3.73,1.05-5.47c-.88,1.91-1.37,4.03-1.37,6.27,0,8.28,6.72,15,15,15s15-6.72,15-15c0-2.24-.49-4.36-1.37-6.27Z"/>
      </g>
    </g>
  </g>
</svg>