<?xml version="1.0" encoding="UTF-8"?>
<svg id="_레이어_2" data-name="레이어 2" xmlns="http://www.w3.org/2000/svg" viewBox="0 0 30 25.04">
  <defs>
    <style>
      .cls-1 {
        fill: #e60212;
      }

      .cls-2 {
        fill: #fff;
      }

      .cls-3 {
        fill: #dcdddd;
      }

      .cls-4 {
        fill: #7a6a56;
      }
    </style>
  </defs>
  <g id="Layer_1" data-name="Layer 1">
    <rect class="cls-2" x="6.13" y="15.36" width="5.1" height="6.04"/>
    <rect class="cls-2" x="12.21" y="14.55" width="5.58" height="8.58"/>
    <g>
      <path class="cls-4" d="M12.68,18.2v1.8h.79v-1.8h-.79Zm.44,1.07c-.16,.02-.3-.08-.27-.21,.02-.07,.09-.13,.18-.14,.16-.02,.3,.08,.27,.21-.02,.07-.09,.13-.18,.14Z"/>
      <polygon class="cls-4" points="25.2 23.47 15 23.47 4.8 23.47 0 25.04 15 25.04 30 25.04 25.2 23.47"/>
      <path class="cls-1" d="M15,11.74c.58,0,1.05-.47,1.05-1.05v-2.2h-2.1v2.2c0,.58,.47,1.05,1.05,1.05Z"/>
      <path class="cls-1" d="M26.36,6.16c-.39-1.13-1.45-1.89-2.64-1.89H6.28c-1.19,0-2.25,.76-2.64,1.89l-.7,2.04H27.06l-.7-2.04Z"/>
      <path class="cls-1" d="M20.1,11.74c.58,0,1.05-.47,1.05-1.05v-2.2h-2.1v2.2c0,.58,.47,1.05,1.05,1.05Z"/>
      <path class="cls-1" d="M24.15,10.68c0,.58,.47,1.05,1.05,1.05s1.05-.47,1.05-1.05v-2.2h-2.1v2.2Z"/>
      <g>
        <path class="cls-3" d="M16.5,10.68c0,.58,.47,1.05,1.05,1.05s1.05-.47,1.05-1.05v-2.2h-2.1v2.2Z"/>
        <path class="cls-3" d="M11.4,10.68c0,.58,.47,1.05,1.05,1.05s1.05-.47,1.05-1.05v-2.2h-2.1v2.2Z"/>
        <path class="cls-3" d="M21.6,8.48v2.2c0,.58,.47,1.05,1.05,1.05s1.05-.47,1.05-1.05v-2.2h-2.1Z"/>
        <path class="cls-3" d="M6.3,10.68c0,.58,.47,1.05,1.05,1.05s1.05-.47,1.05-1.05v-2.2h-2.1v2.2Z"/>
      </g>
      <path class="cls-1" d="M5.85,10.68v-2.2H3.75v2.2c0,.58,.47,1.05,1.05,1.05s1.05-.47,1.05-1.05Z"/>
      <path class="cls-1" d="M9.9,11.74c.58,0,1.05-.47,1.05-1.05v-2.2h-2.1v2.2c0,.58,.47,1.05,1.05,1.05Z"/>
      <path class="cls-4" d="M23.93,11.53c-.27,.41-.74,.69-1.28,.69s-1-.27-1.28-.69c-.27,.41-.74,.69-1.28,.69s-1-.27-1.28-.69c-.27,.41-.74,.69-1.28,.69s-1-.27-1.28-.69c-.27,.41-.74,.69-1.28,.69s-1-.27-1.28-.69c-.27,.41-.74,.69-1.28,.69s-1-.27-1.28-.69c-.27,.41-.74,.69-1.28,.69s-1-.27-1.28-.69c-.27,.41-.74,.69-1.28,.69s-1-.27-1.28-.69c-.27,.41-.74,.69-1.28,.69v10.92h7.41V14.55h5.58v8.58h7.41V12.21c-.53,0-1-.27-1.28-.69Zm-12.7,9.87H6.13v-6.04h5.1v6.04Z"/>
      <path class="cls-4" d="M9.9,20.17s-.09-.02-.12-.05l-2.55-2.49c-.07-.07-.07-.17,0-.24,.07-.07,.17-.07,.24,0l2.55,2.49c.07,.07,.07,.17,0,.24-.03,.03-.08,.05-.12,.05Z"/>
      <path class="cls-4" d="M10.12,18.92s-.09-.02-.12-.05l-2.55-2.49c-.07-.07-.07-.17,0-.24,.07-.07,.17-.07,.24,0l2.55,2.49c.07,.07,.07,.17,0,.24-.03,.03-.08,.05-.12,.05Z"/>
      <rect class="cls-1" x="5.85" width="18.3" height="3.84"/>
      <g>
        <path class="cls-2" d="M9.5,2.31l.66-.04c.01,.11,.04,.19,.09,.25,.07,.09,.17,.14,.31,.14,.1,0,.18-.02,.23-.07,.05-.05,.08-.1,.08-.16s-.03-.11-.08-.16c-.05-.05-.17-.09-.36-.13-.31-.07-.52-.16-.65-.27-.13-.11-.2-.26-.2-.43,0-.12,.03-.23,.1-.33,.07-.1,.17-.18,.3-.24,.13-.06,.32-.09,.55-.09,.29,0,.51,.05,.66,.16s.24,.28,.27,.51l-.66,.04c-.02-.1-.05-.18-.11-.22-.06-.05-.13-.07-.23-.07-.08,0-.14,.02-.18,.05-.04,.03-.06,.08-.06,.13,0,.04,.02,.07,.05,.1,.03,.03,.11,.06,.23,.08,.3,.07,.52,.13,.65,.2,.13,.07,.23,.15,.29,.25,.06,.1,.09,.21,.09,.33,0,.14-.04,.28-.12,.4-.08,.12-.19,.21-.34,.28-.14,.06-.32,.09-.54,.09-.38,0-.65-.07-.8-.22s-.23-.34-.25-.56Z"/>
        <path class="cls-2" d="M11.74,.8h2.12v.56h-.71v1.7h-.7V1.35h-.71V.8Z"/>
        <path class="cls-2" d="M13.97,1.93c0-.37,.1-.65,.31-.86,.2-.2,.49-.31,.86-.31s.66,.1,.87,.3c.2,.2,.3,.48,.3,.85,0,.26-.04,.48-.13,.65-.09,.17-.22,.3-.38,.39-.17,.09-.38,.14-.63,.14s-.46-.04-.63-.12c-.17-.08-.3-.21-.4-.38-.1-.18-.16-.39-.16-.66Zm.7,0c0,.23,.04,.39,.13,.49,.08,.1,.2,.15,.35,.15s.27-.05,.35-.15c.08-.1,.12-.27,.12-.52,0-.21-.04-.37-.13-.46-.09-.1-.2-.15-.35-.15s-.25,.05-.34,.15c-.09,.1-.13,.26-.13,.49Z"/>
        <path class="cls-2" d="M16.69,3.05V.8h1.16c.22,0,.38,.02,.49,.06,.11,.04,.21,.11,.28,.21,.07,.1,.1,.22,.1,.36,0,.12-.03,.23-.08,.32-.05,.09-.13,.16-.22,.22-.06,.04-.14,.07-.24,.09,.08,.03,.14,.06,.18,.08,.03,.02,.06,.06,.11,.12,.05,.06,.08,.11,.1,.14l.34,.65h-.79l-.37-.69c-.05-.09-.09-.15-.13-.17-.05-.03-.11-.05-.17-.05h-.06v.91h-.7Zm.7-1.34h.29s.09-.01,.18-.03c.05,0,.08-.03,.11-.07,.03-.04,.04-.08,.04-.13,0-.07-.02-.13-.07-.17-.05-.04-.13-.06-.26-.06h-.31v.46Z"/>
        <path class="cls-2" d="M19.13,.8h1.87v.48h-1.17v.36h1.08v.46h-1.08v.44h1.2v.51h-1.9V.8Z"/>
      </g>
    </g>
  </g>
</svg>